<?xml version="1.0" encoding="utf-8"?>
<svg width="60px" height="60px" viewBox="0 0 60 60" version="1.1" xmlns:xlink="http://www.w3.org/1999/xlink" xmlns="http://www.w3.org/2000/svg">
  <defs>
    <path d="M0 0L60 0L60 60L0 60L0 0Z" id="path_1" />
    <clipPath id="mask_1">
      <use xlink:href="#path_1" />
    </clipPath>
  </defs>
  <g id="icons8_blog">
    <path d="M0 0L60 0L60 60L0 60L0 0Z" id="Fundo" fill="#FFFFFF" fill-opacity="0" fill-rule="evenodd" stroke="none" />
    <g clip-path="url(#mask_1)">
      <path d="M15 7.5L15 20.625L18.75 20.625L18.75 11.25L41.25 11.25L41.25 20.625L45 20.625L45 7.5L15 7.5ZM22.5 15L22.5 18.75L37.5 18.75L37.5 15L22.5 15ZM9.375 22.5L9.375 26.25L7.5 26.25L7.5 30L9.375 30L9.375 46.875C9.375 49.9585 11.9165 52.5 15 52.5L45 52.5C48.0835 52.5 50.625 49.9585 50.625 46.875L50.625 30L52.5 30L52.5 26.25L50.625 26.25L50.625 22.5L31.875 22.5L31.875 26.25L35.625 26.25L35.625 28.125L24.375 28.125L24.375 26.25L28.125 26.25L28.125 22.5L9.375 22.5ZM13.125 26.25L20.625 26.25L20.625 31.875L39.375 31.875L39.375 26.25L46.875 26.25L46.875 46.875C46.875 47.9297 46.0547 48.75 45 48.75L15 48.75C13.9453 48.75 13.125 47.9297 13.125 46.875L13.125 26.25ZM18.75 35.625C17.7173 35.625 16.875 36.4673 16.875 37.5C16.875 38.5327 17.7173 39.375 18.75 39.375C19.7827 39.375 20.625 38.5327 20.625 37.5C20.625 36.4673 19.7827 35.625 18.75 35.625L18.75 35.625ZM26.25 35.625C25.2173 35.625 24.375 36.4673 24.375 37.5C24.375 38.5327 25.2173 39.375 26.25 39.375C27.2827 39.375 28.125 38.5327 28.125 37.5C28.125 36.4673 27.2827 35.625 26.25 35.625L26.25 35.625ZM33.75 35.625C32.7173 35.625 31.875 36.4673 31.875 37.5C31.875 38.5327 32.7173 39.375 33.75 39.375C34.7827 39.375 35.625 38.5327 35.625 37.5C35.625 36.4673 34.7827 35.625 33.75 35.625L33.75 35.625ZM41.25 35.625C40.2173 35.625 39.375 36.4673 39.375 37.5C39.375 38.5327 40.2173 39.375 41.25 39.375C42.2827 39.375 43.125 38.5327 43.125 37.5C43.125 36.4673 42.2827 35.625 41.25 35.625L41.25 35.625ZM22.5 41.25C21.4673 41.25 20.625 42.0923 20.625 43.125C20.625 44.1577 21.4673 45 22.5 45C23.5327 45 24.375 44.1577 24.375 43.125C24.375 42.0923 23.5327 41.25 22.5 41.25L22.5 41.25ZM30 41.25C28.9673 41.25 28.125 42.0923 28.125 43.125C28.125 44.1577 28.9673 45 30 45C31.0327 45 31.875 44.1577 31.875 43.125C31.875 42.0923 31.0327 41.25 30 41.25L30 41.25ZM37.5 41.25C36.4673 41.25 35.625 42.0923 35.625 43.125C35.625 44.1577 36.4673 45 37.5 45C38.5327 45 39.375 44.1577 39.375 43.125C39.375 42.0923 38.5327 41.25 37.5 41.25L37.5 41.25Z" id="Forma" fill="#FFFFFF" fill-rule="evenodd" stroke="none" />
    </g>
  </g>
</svg>