<?xml version="1.0" encoding="utf-8"?>
<svg width="30px" height="30px" viewBox="0 0 30 30" version="1.1" xmlns:xlink="http://www.w3.org/1999/xlink" xmlns="http://www.w3.org/2000/svg">
  <defs>
    <path d="M0 0L30 0L30 30L0 30L0 0Z" id="path_1" />
    <clipPath id="mask_1">
      <use xlink:href="#path_1" />
    </clipPath>
  </defs>
  <g id="icons8_blog">
    <path d="M0 0L30 0L30 30L0 30L0 0Z" id="Fundo" fill="#FFFFFF" fill-opacity="0" fill-rule="evenodd" stroke="none" />
    <g clip-path="url(#mask_1)">
      <path d="M7.5 3.75L7.5 10.3125L9.375 10.3125L9.375 5.625L20.625 5.625L20.625 10.3125L22.5 10.3125L22.5 3.75L7.5 3.75ZM11.25 7.5L11.25 9.375L18.75 9.375L18.75 7.5L11.25 7.5ZM4.6875 11.25L4.6875 13.125L3.75 13.125L3.75 15L4.6875 15L4.6875 23.4375C4.6875 24.9792 5.95825 26.25 7.5 26.25L22.5 26.25C24.0417 26.25 25.3125 24.9792 25.3125 23.4375L25.3125 15L26.25 15L26.25 13.125L25.3125 13.125L25.3125 11.25L15.9375 11.25L15.9375 13.125L17.8125 13.125L17.8125 14.0625L12.1875 14.0625L12.1875 13.125L14.0625 13.125L14.0625 11.25L4.6875 11.25ZM6.5625 13.125L10.3125 13.125L10.3125 15.9375L19.6875 15.9375L19.6875 13.125L23.4375 13.125L23.4375 23.4375C23.4375 23.9648 23.0273 24.375 22.5 24.375L7.5 24.375C6.97266 24.375 6.5625 23.9648 6.5625 23.4375L6.5625 13.125ZM9.375 17.8125C8.85864 17.8125 8.4375 18.2336 8.4375 18.75C8.4375 19.2664 8.85864 19.6875 9.375 19.6875C9.89136 19.6875 10.3125 19.2664 10.3125 18.75C10.3125 18.2336 9.89136 17.8125 9.375 17.8125L9.375 17.8125ZM13.125 17.8125C12.6086 17.8125 12.1875 18.2336 12.1875 18.75C12.1875 19.2664 12.6086 19.6875 13.125 19.6875C13.6414 19.6875 14.0625 19.2664 14.0625 18.75C14.0625 18.2336 13.6414 17.8125 13.125 17.8125L13.125 17.8125ZM16.875 17.8125C16.3586 17.8125 15.9375 18.2336 15.9375 18.75C15.9375 19.2664 16.3586 19.6875 16.875 19.6875C17.3914 19.6875 17.8125 19.2664 17.8125 18.75C17.8125 18.2336 17.3914 17.8125 16.875 17.8125L16.875 17.8125ZM20.625 17.8125C20.1086 17.8125 19.6875 18.2336 19.6875 18.75C19.6875 19.2664 20.1086 19.6875 20.625 19.6875C21.1414 19.6875 21.5625 19.2664 21.5625 18.75C21.5625 18.2336 21.1414 17.8125 20.625 17.8125L20.625 17.8125ZM11.25 20.625C10.7336 20.625 10.3125 21.0461 10.3125 21.5625C10.3125 22.0789 10.7336 22.5 11.25 22.5C11.7664 22.5 12.1875 22.0789 12.1875 21.5625C12.1875 21.0461 11.7664 20.625 11.25 20.625L11.25 20.625ZM15 20.625C14.4836 20.625 14.0625 21.0461 14.0625 21.5625C14.0625 22.0789 14.4836 22.5 15 22.5C15.5164 22.5 15.9375 22.0789 15.9375 21.5625C15.9375 21.0461 15.5164 20.625 15 20.625L15 20.625ZM18.75 20.625C18.2336 20.625 17.8125 21.0461 17.8125 21.5625C17.8125 22.0789 18.2336 22.5 18.75 22.5C19.2664 22.5 19.6875 22.0789 19.6875 21.5625C19.6875 21.0461 19.2664 20.625 18.75 20.625L18.75 20.625Z" id="Forma" fill="#FFFFFF" fill-rule="evenodd" stroke="none" />
    </g>
  </g>
</svg>