<?xml version="1.0" encoding="utf-8"?>
<svg width="100px" height="100px" viewBox="0 0 100 100" version="1.1" xmlns:xlink="http://www.w3.org/1999/xlink" xmlns="http://www.w3.org/2000/svg">
  <defs>
    <path d="M0 0L100 0L100 100L0 100L0 0Z" id="path_1" />
    <clipPath id="mask_1">
      <use xlink:href="#path_1" />
    </clipPath>
  </defs>
  <g id="icons8_login">
    <path d="M0 0L100 0L100 100L0 100L0 0Z" id="Fundo" fill="#FFFFFF" fill-opacity="0" fill-rule="evenodd" stroke="none" />
    <g clip-path="url(#mask_1)">
      <path d="M50.0349 3.96484C30.8735 3.96484 14.4244 15.7327 7.52705 32.4414C6.94747 33.769 7.13087 35.3062 8.00653 36.4601C8.88218 37.6141 10.3133 38.2045 11.7479 38.0037C13.1825 37.8029 14.3964 36.8423 14.9216 35.4922C20.6163 21.6969 34.1442 11.9648 50.0349 11.9648C71.0691 11.9648 88.0349 28.9306 88.0349 49.9648C88.0349 70.9991 71.0691 87.9648 50.0349 87.9648C34.1464 87.9648 20.6162 78.2365 14.9216 64.4414C14.3964 63.0914 13.1825 62.1307 11.7479 61.9299C10.3133 61.729 8.8822 62.3195 8.00654 63.4734C7.13088 64.6274 6.94747 66.1646 7.52704 67.4922C14.4245 84.2011 30.8753 95.9648 50.0349 95.9648C75.3926 95.9648 96.0349 75.3226 96.0349 49.9648C96.0349 24.6071 75.3926 3.96484 50.0349 3.96484L50.0349 3.96484ZM53.9256 31.9258C52.2979 31.9262 50.8328 32.9128 50.2203 34.4209C49.6078 35.9289 49.9701 37.6577 51.1366 38.793L58.3084 45.9648L7.96468 45.9648C6.52214 45.9444 5.18036 46.7023 4.45313 47.9483C3.72591 49.1943 3.72591 50.7354 4.45313 51.9813C5.18035 53.2273 6.52213 53.9852 7.96468 53.9648L58.3084 53.9648L51.1366 61.1367C50.0916 62.14 49.6707 63.6298 50.0361 65.0315C50.4016 66.4333 51.4962 67.528 52.898 67.8934C54.2997 68.2588 55.7895 67.8379 56.7928 66.793L70.7928 52.793C72.3543 51.2309 72.3543 48.6988 70.7928 47.1367L56.7928 33.1367C56.0397 32.3626 55.0056 31.9258 53.9256 31.9258L53.9256 31.9258Z" id="Forma" fill="#313131" fill-opacity="0.69803923" fill-rule="evenodd" stroke="none" />
    </g>
  </g>
</svg>