<?xml version="1.0" encoding="utf-8"?>
<svg width="25px" height="25px" viewBox="0 0 25 25" version="1.1" xmlns:xlink="http://www.w3.org/1999/xlink" xmlns="http://www.w3.org/2000/svg">
  <g id="home">
    <path d="M13.4931 0.361159L24.2 10.2222C24.7083 10.6925 25 11.3479 25 12.0221L25 22.4985C25 23.8781 23.8222 25 22.3764 25L2.62222 25C1.17639 25 0 23.8781 0 22.4985L0 12.0221C0 11.3479 0.291667 10.6925 0.798611 10.2234L11.5069 0.361159C12.0306 -0.120386 12.9694 -0.120386 13.4931 0.361159ZM22.2083 22.4985L18.0556 22.4985L18.0556 13.7431C18.0556 13.0514 17.4333 12.4923 16.6667 12.4923L8.33333 12.4923C7.56528 12.4923 6.94444 13.0514 6.94444 13.7431L6.94444 22.4985L2.77778 22.4985L2.78611 11.9708L12.4972 3.02653L22.2222 12.022L22.2083 22.4985ZM9.72222 22.4984L15.2778 22.4984L15.2778 14.9938L9.72222 14.9938L9.72222 22.4984Z" id="🎨-Icon-Сolor" fill="#FFFFFF" fill-rule="evenodd" stroke="none" />
  </g>
</svg>