<?xml version="1.0" encoding="utf-8"?>
<svg width="50px" height="50px" viewBox="0 0 50 50" version="1.1" xmlns:xlink="http://www.w3.org/1999/xlink" xmlns="http://www.w3.org/2000/svg">
  <g id="people">
    <path d="M50 44.4444C50 45.9778 48.8825 47.2222 47.5 47.2222C46.1175 47.2222 45 45.9778 45 44.4444C45 39.85 41.635 36.1111 37.5 36.1111C35.7925 36.1111 34.17 36.7611 32.86 37.9139C34.22 40.6806 35 43.8528 35 47.2222C35 48.7556 33.8825 50 32.5 50C31.1175 50 30 48.7556 30 47.2222C30 39.5639 24.3925 33.3333 17.5 33.3333C10.6075 33.3333 5 39.5639 5 47.2222C5 48.7556 3.8825 50 2.5 50C1.1175 50 0 48.7556 0 47.2222C0 36.5 7.8525 27.7778 17.5 27.7778C22.3175 27.7778 26.6825 29.9528 29.85 33.4611C32.0225 31.5944 34.6975 30.5556 37.5 30.5556C44.3925 30.5556 50 36.7861 50 44.4444M37.5 16.6667C38.88 16.6667 40 17.9139 40 19.4444C40 20.975 38.88 22.2222 37.5 22.2222C36.12 22.2222 35 20.975 35 19.4444C35 17.9139 36.12 16.6667 37.5 16.6667M37.5 27.7778C41.635 27.7778 45 24.0389 45 19.4444C45 14.85 41.635 11.1111 37.5 11.1111C33.365 11.1111 30 14.85 30 19.4444C30 24.0389 33.365 27.7778 37.5 27.7778M17.5 5.55556C20.2575 5.55556 22.5 8.04722 22.5 11.1111C22.5 14.175 20.2575 16.6667 17.5 16.6667C14.7425 16.6667 12.5 14.175 12.5 11.1111C12.5 8.04722 14.7425 5.55556 17.5 5.55556M17.5 22.2222C23.015 22.2222 27.5 17.2389 27.5 11.1111C27.5 4.98333 23.015 0 17.5 0C11.985 0 7.5 4.98333 7.5 11.1111C7.5 17.2389 11.985 22.2222 17.5 22.2222" id="🎨-Icon-Сolor" fill="#FFFFFF" fill-rule="evenodd" stroke="none" />
  </g>
</svg>