<?xml version="1.0" encoding="utf-8"?>
<svg width="25px" height="25px" viewBox="0 0 25 25" version="1.1" xmlns:xlink="http://www.w3.org/1999/xlink" xmlns="http://www.w3.org/2000/svg">
  <defs>
    <path d="M10.4965 0.155221C14.5326 -0.468555 18.4824 0.805247 21.3386 3.66037C24.1947 6.51673 25.4709 10.4694 24.8434 14.5033C24.0484 19.5998 19.9436 23.825 14.8588 24.7787C12.414 25.2375 9.92156 24.9737 7.65291 24.015C7.45417 23.9325 7.15668 23.8462 6.8492 23.905L1.49568 24.9762C1.41319 24.9925 1.33194 25 1.25069 25C0.92196 25 0.603224 24.8712 0.366984 24.6337C0.0707471 24.3387 -0.0579972 23.915 0.0244991 23.5049L1.09695 18.1447C1.14445 17.9035 1.10695 17.6347 0.985707 17.3459C0.026999 15.0796 -0.237989 12.587 0.22199 10.1394C1.1757 5.05542 5.40051 0.950253 10.4965 0.155221ZM22.3723 14.1183C21.7385 18.186 18.4599 21.5599 14.3989 22.3212C12.4377 22.6912 10.4403 22.4799 8.62787 21.7124C8.11414 21.4949 7.58291 21.3849 7.06169 21.3849C6.8242 21.3849 6.58921 21.4074 6.35797 21.4536L2.84312 22.1561L3.54684 18.6348C3.69434 17.9035 3.60434 17.1209 3.2881 16.3722C2.52064 14.5596 2.31065 12.5632 2.67938 10.6007C3.4406 6.53925 6.81295 3.26036 10.8815 2.62659C14.1189 2.12282 17.285 3.14286 19.5699 5.42795C21.856 7.7143 22.8772 10.8819 22.3723 14.1183ZM6.24995 12.4996C6.24995 11.8096 6.80993 11.2495 7.4999 11.2495C8.18987 11.2495 8.74984 11.8096 8.74984 12.4996C8.74984 13.1896 8.18987 13.7497 7.4999 13.7497C6.80993 13.7497 6.24995 13.1896 6.24995 12.4996ZM12.4997 11.2495C11.8097 11.2495 11.2497 11.8096 11.2497 12.4996C11.2497 13.1896 11.8097 13.7497 12.4997 13.7497C13.1896 13.7497 13.7496 13.1896 13.7496 12.4996C13.7496 11.8096 13.1896 11.2495 12.4997 11.2495ZM17.4995 11.2495C16.8095 11.2495 16.2495 11.8096 16.2495 12.4996C16.2495 13.1896 16.8095 13.7497 17.4995 13.7497C18.1894 13.7497 18.7494 13.1896 18.7494 12.4996C18.7494 11.8096 18.1894 11.2495 17.4995 11.2495Z" id="path_1" />
    <clipPath id="mask_1">
      <use xlink:href="#path_1" />
    </clipPath>
  </defs>
  <g id="message-circle">
    <path d="M10.4965 0.155221C14.5326 -0.468555 18.4824 0.805247 21.3386 3.66037C24.1947 6.51673 25.4709 10.4694 24.8434 14.5033C24.0484 19.5998 19.9436 23.825 14.8588 24.7787C12.414 25.2375 9.92156 24.9737 7.65291 24.015C7.45417 23.9325 7.15668 23.8462 6.8492 23.905L1.49568 24.9762C1.41319 24.9925 1.33194 25 1.25069 25C0.92196 25 0.603224 24.8712 0.366984 24.6337C0.0707471 24.3387 -0.0579972 23.915 0.0244991 23.5049L1.09695 18.1447C1.14445 17.9035 1.10695 17.6347 0.985707 17.3459C0.026999 15.0796 -0.237989 12.587 0.22199 10.1394C1.1757 5.05542 5.40051 0.950253 10.4965 0.155221ZM22.3723 14.1183C21.7385 18.186 18.4599 21.5599 14.3989 22.3212C12.4377 22.6912 10.4403 22.4799 8.62787 21.7124C8.11414 21.4949 7.58291 21.3849 7.06169 21.3849C6.8242 21.3849 6.58921 21.4074 6.35797 21.4536L2.84312 22.1561L3.54684 18.6348C3.69434 17.9035 3.60434 17.1209 3.2881 16.3722C2.52064 14.5596 2.31065 12.5632 2.67938 10.6007C3.4406 6.53925 6.81295 3.26036 10.8815 2.62659C14.1189 2.12282 17.285 3.14286 19.5699 5.42795C21.856 7.7143 22.8772 10.8819 22.3723 14.1183ZM6.24995 12.4996C6.24995 11.8096 6.80993 11.2495 7.4999 11.2495C8.18987 11.2495 8.74984 11.8096 8.74984 12.4996C8.74984 13.1896 8.18987 13.7497 7.4999 13.7497C6.80993 13.7497 6.24995 13.1896 6.24995 12.4996ZM12.4997 11.2495C11.8097 11.2495 11.2497 11.8096 11.2497 12.4996C11.2497 13.1896 11.8097 13.7497 12.4997 13.7497C13.1896 13.7497 13.7496 13.1896 13.7496 12.4996C13.7496 11.8096 13.1896 11.2495 12.4997 11.2495ZM17.4995 11.2495C16.8095 11.2495 16.2495 11.8096 16.2495 12.4996C16.2495 13.1896 16.8095 13.7497 17.4995 13.7497C18.1894 13.7497 18.7494 13.1896 18.7494 12.4996C18.7494 11.8096 18.1894 11.2495 17.4995 11.2495Z" id="🎨-Icon-Сolor" fill="#FFFFFF" fill-rule="evenodd" stroke="none" />
  </g>
</svg>