<?xml version="1.0" encoding="utf-8"?>
<svg width="22.499512px" height="24.998566px" viewBox="0 0 22.499512 24.998566" version="1.1" xmlns:xlink="http://www.w3.org/1999/xlink" xmlns="http://www.w3.org/2000/svg">
  <defs>
    <path d="M3.14423 17.4986L4.61923 16.0211C5.09173 15.5486 5.35173 14.9211 5.35173 14.2536L5.35173 8.40732C5.35173 6.71107 6.08923 5.08982 7.37673 3.96232C8.67423 2.82482 10.3267 2.32482 12.048 2.55107C14.9567 2.93732 17.1505 5.56732 17.1505 8.66982L17.1505 14.2536C17.1505 14.9211 17.4105 15.5486 17.8817 16.0198L19.358 17.4986L3.14423 17.4986ZM13.7505 20.4248C13.7505 21.5486 12.6055 22.4986 11.2505 22.4986C9.89546 22.4986 8.75046 21.5486 8.75046 20.4248L8.75046 19.9986L13.7505 19.9986L13.7505 20.4248ZM21.9017 16.5086L19.6504 14.2536L19.6504 8.66982C19.6504 4.31857 16.5229 0.622321 12.3754 0.0735709C9.97292 -0.246429 7.54792 0.487321 5.72917 2.08232C3.89917 3.68482 2.85167 5.98982 2.85167 8.40732L2.85042 14.2536L0.599169 16.5086C0.0129192 17.0961 -0.160831 17.9698 0.156669 18.7361C0.475419 19.5036 1.21667 19.9986 2.04667 19.9986L6.25042 19.9986L6.25042 20.4248C6.25042 22.9473 8.49292 24.9986 11.2504 24.9986C14.0079 24.9986 16.2504 22.9473 16.2504 20.4248L16.2504 19.9986L20.4542 19.9986C21.2842 19.9986 22.0242 19.5036 22.3417 18.7373C22.6604 17.9698 22.4879 17.0948 21.9017 16.5086L21.9017 16.5086Z" id="path_1" />
    <clipPath id="mask_1">
      <use xlink:href="#path_1" />
    </clipPath>
  </defs>
  <g id="bell">
    <path d="M3.14423 17.4986L4.61923 16.0211C5.09173 15.5486 5.35173 14.9211 5.35173 14.2536L5.35173 8.40732C5.35173 6.71107 6.08923 5.08982 7.37673 3.96232C8.67423 2.82482 10.3267 2.32482 12.048 2.55107C14.9567 2.93732 17.1505 5.56732 17.1505 8.66982L17.1505 14.2536C17.1505 14.9211 17.4105 15.5486 17.8817 16.0198L19.358 17.4986L3.14423 17.4986ZM13.7505 20.4248C13.7505 21.5486 12.6055 22.4986 11.2505 22.4986C9.89546 22.4986 8.75046 21.5486 8.75046 20.4248L8.75046 19.9986L13.7505 19.9986L13.7505 20.4248ZM21.9017 16.5086L19.6504 14.2536L19.6504 8.66982C19.6504 4.31857 16.5229 0.622321 12.3754 0.0735709C9.97292 -0.246429 7.54792 0.487321 5.72917 2.08232C3.89917 3.68482 2.85167 5.98982 2.85167 8.40732L2.85042 14.2536L0.599169 16.5086C0.0129192 17.0961 -0.160831 17.9698 0.156669 18.7361C0.475419 19.5036 1.21667 19.9986 2.04667 19.9986L6.25042 19.9986L6.25042 20.4248C6.25042 22.9473 8.49292 24.9986 11.2504 24.9986C14.0079 24.9986 16.2504 22.9473 16.2504 20.4248L16.2504 19.9986L20.4542 19.9986C21.2842 19.9986 22.0242 19.5036 22.3417 18.7373C22.6604 17.9698 22.4879 17.0948 21.9017 16.5086L21.9017 16.5086Z" id="🎨-Icon-Сolor" fill="#FFFFFF" fill-rule="evenodd" stroke="none" />
  </g>
</svg>