<?xml version="1.0" encoding="utf-8"?>
<svg width="50px" height="50px" viewBox="0 0 50 50" version="1.1" xmlns:xlink="http://www.w3.org/1999/xlink" xmlns="http://www.w3.org/2000/svg">
  <defs>
    <path d="M20.9931 0.310441C29.0652 -0.937111 36.9649 1.61049 42.6771 7.32073C48.3894 13.0335 50.9417 20.9388 49.6868 29.0066C48.0969 39.1996 39.8872 47.6499 29.7177 49.5575C24.8279 50.475 19.8431 49.9475 15.3058 48.0299C14.9083 47.8649 14.3134 47.6924 13.6984 47.8099L2.99137 49.9525C2.82638 49.985 2.66388 50 2.50139 50C1.84392 50 1.20645 49.7425 0.733968 49.2675C0.141494 48.6774 -0.115994 47.8299 0.0489983 47.0099L2.1939 36.2894C2.2889 35.8069 2.2139 35.2694 1.97141 34.6919C0.0539981 30.1592 -0.475979 25.174 0.443981 20.2788C2.3514 10.1108 10.801 1.90051 20.9931 0.310441ZM44.7445 28.2366C43.4771 36.372 36.9199 43.1197 28.7977 44.6423C24.8754 45.3823 20.8806 44.9598 17.2557 43.4248C16.2283 42.9897 15.1658 42.7697 14.1234 42.7697C13.6484 42.7697 13.1784 42.8147 12.7159 42.9072L5.68625 44.3123L7.09368 37.2695C7.38867 35.8069 7.20868 34.2419 6.57621 32.7443C5.04128 29.1192 4.62129 25.1265 5.35876 21.2013C6.88119 13.0785 13.6259 6.52073 21.763 5.25318C28.2378 4.24564 34.57 6.28572 39.1398 10.8559C43.7121 15.4286 45.7545 21.7639 44.7445 28.2366ZM12.4999 24.9992C12.4999 23.6191 13.6199 22.4991 14.9998 22.4991C16.3797 22.4991 17.4997 23.6191 17.4997 24.9992C17.4997 26.3793 16.3797 27.4993 14.9998 27.4993C13.6199 27.4993 12.4999 26.3793 12.4999 24.9992ZM24.9994 22.4991C23.6194 22.4991 22.4995 23.6191 22.4995 24.9992C22.4995 26.3793 23.6194 27.4993 24.9994 27.4993C26.3793 27.4993 27.4992 26.3793 27.4992 24.9992C27.4992 23.6191 26.3793 22.4991 24.9994 22.4991ZM34.9989 22.4991C33.619 22.4991 32.499 23.6191 32.499 24.9992C32.499 26.3793 33.619 27.4993 34.9989 27.4993C36.3788 27.4993 37.4988 26.3793 37.4988 24.9992C37.4988 23.6191 36.3788 22.4991 34.9989 22.4991Z" id="path_1" />
    <clipPath id="mask_1">
      <use xlink:href="#path_1" />
    </clipPath>
  </defs>
  <g id="message-circle">
    <path d="M20.9931 0.310441C29.0652 -0.937111 36.9649 1.61049 42.6771 7.32073C48.3894 13.0335 50.9417 20.9388 49.6868 29.0066C48.0969 39.1996 39.8872 47.6499 29.7177 49.5575C24.8279 50.475 19.8431 49.9475 15.3058 48.0299C14.9083 47.8649 14.3134 47.6924 13.6984 47.8099L2.99137 49.9525C2.82638 49.985 2.66388 50 2.50139 50C1.84392 50 1.20645 49.7425 0.733968 49.2675C0.141494 48.6774 -0.115994 47.8299 0.0489983 47.0099L2.1939 36.2894C2.2889 35.8069 2.2139 35.2694 1.97141 34.6919C0.0539981 30.1592 -0.475979 25.174 0.443981 20.2788C2.3514 10.1108 10.801 1.90051 20.9931 0.310441ZM44.7445 28.2366C43.4771 36.372 36.9199 43.1197 28.7977 44.6423C24.8754 45.3823 20.8806 44.9598 17.2557 43.4248C16.2283 42.9897 15.1658 42.7697 14.1234 42.7697C13.6484 42.7697 13.1784 42.8147 12.7159 42.9072L5.68625 44.3123L7.09368 37.2695C7.38867 35.8069 7.20868 34.2419 6.57621 32.7443C5.04128 29.1192 4.62129 25.1265 5.35876 21.2013C6.88119 13.0785 13.6259 6.52073 21.763 5.25318C28.2378 4.24564 34.57 6.28572 39.1398 10.8559C43.7121 15.4286 45.7545 21.7639 44.7445 28.2366ZM12.4999 24.9992C12.4999 23.6191 13.6199 22.4991 14.9998 22.4991C16.3797 22.4991 17.4997 23.6191 17.4997 24.9992C17.4997 26.3793 16.3797 27.4993 14.9998 27.4993C13.6199 27.4993 12.4999 26.3793 12.4999 24.9992ZM24.9994 22.4991C23.6194 22.4991 22.4995 23.6191 22.4995 24.9992C22.4995 26.3793 23.6194 27.4993 24.9994 27.4993C26.3793 27.4993 27.4992 26.3793 27.4992 24.9992C27.4992 23.6191 26.3793 22.4991 24.9994 22.4991ZM34.9989 22.4991C33.619 22.4991 32.499 23.6191 32.499 24.9992C32.499 26.3793 33.619 27.4993 34.9989 27.4993C36.3788 27.4993 37.4988 26.3793 37.4988 24.9992C37.4988 23.6191 36.3788 22.4991 34.9989 22.4991Z" id="🎨-Icon-Сolor" fill="#FFFFFF" fill-rule="evenodd" stroke="none" />
  </g>
</svg>