<?xml version="1.0" encoding="utf-8"?>
<svg width="10px" height="10px" viewBox="0 0 10 10" version="1.1" xmlns:xlink="http://www.w3.org/1999/xlink" xmlns="http://www.w3.org/2000/svg">
  <defs>
    <path d="M7 7C7 7.275 6.775 7.5 6.5 7.5C6.225 7.5 6 7.275 6 7L6 5C6 4.725 6.225 4.5 6.5 4.5C6.775 4.5 7 4.725 7 5L7 7ZM4 1.164C4 1.0865 4.107 1 4.25 1L5.75 1C5.893 1 6 1.0865 6 1.164L6 2L4 2L4 1.164ZM4 7C4 7.275 3.775 7.5 3.5 7.5C3.225 7.5 3 7.275 3 7L3 5C3 4.725 3.225 4.5 3.5 4.5C3.775 4.5 4 4.725 4 5L4 7ZM9.5 2L9 2L7 2L7 1.164C7 0.522 6.4395 0 5.75 0L4.25 0C3.5605 0 3 0.522 3 1.164L3 2L1 2L0.5 2C0.225 2 0 2.225 0 2.5C0 2.775 0.225 3 0.5 3L1 3L1 8.5C1 9.327 1.673 10 2.5 10L7.5 10C8.327 10 9 9.327 9 8.5L9 3L9.5 3C9.775 3 10 2.775 10 2.5C10 2.225 9.775 2 9.5 2L9.5 2Z" id="path_1" />
    <clipPath id="mask_1">
      <use xlink:href="#path_1" />
    </clipPath>
  </defs>
  <g id="trash-2-fill">
    <path d="M7 7C7 7.275 6.775 7.5 6.5 7.5C6.225 7.5 6 7.275 6 7L6 5C6 4.725 6.225 4.5 6.5 4.5C6.775 4.5 7 4.725 7 5L7 7ZM4 1.164C4 1.0865 4.107 1 4.25 1L5.75 1C5.893 1 6 1.0865 6 1.164L6 2L4 2L4 1.164ZM4 7C4 7.275 3.775 7.5 3.5 7.5C3.225 7.5 3 7.275 3 7L3 5C3 4.725 3.225 4.5 3.5 4.5C3.775 4.5 4 4.725 4 5L4 7ZM9.5 2L9 2L7 2L7 1.164C7 0.522 6.4395 0 5.75 0L4.25 0C3.5605 0 3 0.522 3 1.164L3 2L1 2L0.5 2C0.225 2 0 2.225 0 2.5C0 2.775 0.225 3 0.5 3L1 3L1 8.5C1 9.327 1.673 10 2.5 10L7.5 10C8.327 10 9 9.327 9 8.5L9 3L9.5 3C9.775 3 10 2.775 10 2.5C10 2.225 9.775 2 9.5 2L9.5 2Z" id="🎨-Icon-Сolor" fill="#FFFFFF" fill-rule="evenodd" stroke="none" />
  </g>
</svg>