<?xml version="1.0" encoding="utf-8"?>
<svg width="9.999023px" height="9.986069px" viewBox="0 0 9.999023 9.986069" version="1.1" xmlns:xlink="http://www.w3.org/1999/xlink" xmlns="http://www.w3.org/2000/svg">
  <defs>
    <path d="M7.51152 4.16043L5.82715 2.47606L7.04465 1.25793L8.7284 2.94168L7.51152 4.16043ZM9.62743 2.07231L9.62681 2.07169L7.91556 0.360439C7.45243 -0.101436 6.65681 -0.123311 6.21806 0.317314L0.59556 5.93981C0.39181 6.14294 0.26556 6.41294 0.23931 6.69856L0.00243501 9.30481C-0.013815 9.48919 0.05181 9.67169 0.18306 9.80294C0.301185 9.92106 0.46056 9.98606 0.624935 9.98606C0.64431 9.98606 0.66306 9.98544 0.68181 9.98356L3.28806 9.74669C3.57431 9.72044 3.84368 9.59481 4.04681 9.39169L9.66993 3.76856C10.1249 3.31231 10.1056 2.55106 9.62743 2.07231L9.62743 2.07231Z" id="path_1" />
    <clipPath id="mask_1">
      <use xlink:href="#path_1" />
    </clipPath>
  </defs>
  <g id="edit-fill">
    <path d="M7.51152 4.16043L5.82715 2.47606L7.04465 1.25793L8.7284 2.94168L7.51152 4.16043ZM9.62743 2.07231L9.62681 2.07169L7.91556 0.360439C7.45243 -0.101436 6.65681 -0.123311 6.21806 0.317314L0.59556 5.93981C0.39181 6.14294 0.26556 6.41294 0.23931 6.69856L0.00243501 9.30481C-0.013815 9.48919 0.05181 9.67169 0.18306 9.80294C0.301185 9.92106 0.46056 9.98606 0.624935 9.98606C0.64431 9.98606 0.66306 9.98544 0.68181 9.98356L3.28806 9.74669C3.57431 9.72044 3.84368 9.59481 4.04681 9.39169L9.66993 3.76856C10.1249 3.31231 10.1056 2.55106 9.62743 2.07231L9.62743 2.07231Z" id="🎨-Icon-Сolor" fill="#FFFFFF" fill-rule="evenodd" stroke="none" />
  </g>
</svg>