<?xml version="1.0" encoding="utf-8"?>
<svg width="12px" height="10px" viewBox="0 0 12 10" version="1.1" xmlns:xlink="http://www.w3.org/1999/xlink" xmlns="http://www.w3.org/2000/svg">
  <defs>
    <path d="M10.4441 8.32947L11.2241 9.05168C11.4587 9.2689 11.4587 9.62001 11.2241 9.83722C11.1071 9.94556 10.9535 10 10.7999 10C10.6463 10 10.4927 9.94556 10.3757 9.83722L8.75144 8.33336L8.39984 8.0078L7.59283 7.26059L7.55143 7.22226L6.05002 5.8321C6.03333 5.83296 6.01653 5.83339 5.99962 5.83339C5.50341 5.83339 5.09961 5.45951 5.09961 5.00007C5.09961 4.98441 5.10008 4.96885 5.101 4.9534L3.16958 3.16509L2.11897 2.19233L0.775561 0.948459C0.540959 0.73124 0.540959 0.380134 0.775561 0.162914C1.01016 -0.0543048 1.38937 -0.0543048 1.62397 0.162914L2.65178 1.11457L3.53079 1.92845L5.94959 4.16802C5.96615 4.16718 5.98283 4.16675 5.99962 4.16675C6.49582 4.16675 6.89963 4.54063 6.89963 5.00007C6.89963 5.01561 6.89917 5.03106 6.89825 5.04639L9.24825 7.22226L10.4441 8.32947ZM3.95597 1.5358L5.63418 3.08967C5.75359 3.07022 5.87479 3.05578 6.00019 3.05578C7.1582 3.05578 8.10021 3.92799 8.10021 5.0002C8.10021 5.1163 8.08461 5.22853 8.06361 5.33908L9.67282 6.82961L10.1732 7.29294C11.0864 6.52184 11.672 5.67796 11.921 5.2763C12.0266 5.10519 12.0266 4.89464 11.921 4.72353C11.5382 4.10576 9.42382 1.00914 5.83819 1.11303C5.12778 1.13025 4.48457 1.27191 3.90137 1.4858L3.95597 1.5358ZM7.16887 7.65399L7.97588 8.40065L8.09888 8.51454C7.51568 8.72842 6.87307 8.87009 6.16266 8.88675C6.11346 8.88842 6.06366 8.88898 6.01506 8.88898C2.49723 8.88898 0.457205 5.88624 0.0792008 5.27625C-0.0264003 5.10514 -0.0264003 4.89459 0.0792008 4.72348C0.328203 4.32237 0.913809 3.4785 1.82702 2.7074L2.74563 3.5585L3.93724 4.66126C3.91564 4.77181 3.90004 4.88403 3.90004 5.00014C3.90004 6.07235 4.84205 6.94456 6.00006 6.94456C6.12546 6.94456 6.24666 6.93012 6.36606 6.91012L7.12747 7.61511L7.16887 7.65399Z" id="path_1" />
    <clipPath id="mask_1">
      <use xlink:href="#path_1" />
    </clipPath>
  </defs>
  <g id="eye-off-fill">
    <path d="M10.4441 8.32947L11.2241 9.05168C11.4587 9.2689 11.4587 9.62001 11.2241 9.83722C11.1071 9.94556 10.9535 10 10.7999 10C10.6463 10 10.4927 9.94556 10.3757 9.83722L8.75144 8.33336L8.39984 8.0078L7.59283 7.26059L7.55143 7.22226L6.05002 5.8321C6.03333 5.83296 6.01653 5.83339 5.99962 5.83339C5.50341 5.83339 5.09961 5.45951 5.09961 5.00007C5.09961 4.98441 5.10008 4.96885 5.101 4.9534L3.16958 3.16509L2.11897 2.19233L0.775561 0.948459C0.540959 0.73124 0.540959 0.380134 0.775561 0.162914C1.01016 -0.0543048 1.38937 -0.0543048 1.62397 0.162914L2.65178 1.11457L3.53079 1.92845L5.94959 4.16802C5.96615 4.16718 5.98283 4.16675 5.99962 4.16675C6.49582 4.16675 6.89963 4.54063 6.89963 5.00007C6.89963 5.01561 6.89917 5.03106 6.89825 5.04639L9.24825 7.22226L10.4441 8.32947ZM3.95597 1.5358L5.63418 3.08967C5.75359 3.07022 5.87479 3.05578 6.00019 3.05578C7.1582 3.05578 8.10021 3.92799 8.10021 5.0002C8.10021 5.1163 8.08461 5.22853 8.06361 5.33908L9.67282 6.82961L10.1732 7.29294C11.0864 6.52184 11.672 5.67796 11.921 5.2763C12.0266 5.10519 12.0266 4.89464 11.921 4.72353C11.5382 4.10576 9.42382 1.00914 5.83819 1.11303C5.12778 1.13025 4.48457 1.27191 3.90137 1.4858L3.95597 1.5358ZM7.16887 7.65399L7.97588 8.40065L8.09888 8.51454C7.51568 8.72842 6.87307 8.87009 6.16266 8.88675C6.11346 8.88842 6.06366 8.88898 6.01506 8.88898C2.49723 8.88898 0.457205 5.88624 0.0792008 5.27625C-0.0264003 5.10514 -0.0264003 4.89459 0.0792008 4.72348C0.328203 4.32237 0.913809 3.4785 1.82702 2.7074L2.74563 3.5585L3.93724 4.66126C3.91564 4.77181 3.90004 4.88403 3.90004 5.00014C3.90004 6.07235 4.84205 6.94456 6.00006 6.94456C6.12546 6.94456 6.24666 6.93012 6.36606 6.91012L7.12747 7.61511L7.16887 7.65399Z" id="🎨-Icon-Сolor" fill="#FFFFFF" fill-rule="evenodd" stroke="none" />
  </g>
</svg>