<?xml version="1.0" encoding="utf-8"?>
<svg xmlns="http://www.w3.org/2000/svg" viewBox="0 0 26 26" width="208" height="208">
  <path d="M13 -0.03125C12.800781 -0.03125 12.605469 0.0390625 12.40625 0.1875C0.0078125 9.386719 0 10.398438 0 11L0 23C0 24.699219 1.300781 26 3 26L23 26C24.699219 26 26 24.699219 26 23L26 11C26 10.398438 25.992188 9.386719 13.59375 0.1875C13.394531 0.0390625 13.199219 -0.03125 13 -0.03125 Z M 5 7L21 7L21 12.5L25.1875 10.8125L17.5 16.90625L23.90625 23.5L16.09375 17.90625L13 19.90625L9.90625 17.90625L2.09375 23.5L8.5 16.90625L0.8125 10.90625L5 12.5 Z M 13 8.6875L9 14L12 14L12 17L14 17L14 14L17 14Z" fill="#FFFFFF" />
</svg>